<svg xmlns="http://www.w3.org/2000/svg" width="400" height="400" viewBox="0 0 400 400" fill="none">
  <defs>
    <linearGradient id="g" x1="200" y1="0" x2="200" y2="400" gradientUnits="userSpaceOnUse">
      <stop stop-color="#3FA9F5"/>
      <stop offset="1" stop-color="#1467D6"/>
    </linearGradient>
  </defs>
  <rect width="400" height="400" rx="88" fill="url(#g)"/>
  <path d="M142 118h116M150 150h100M158 182h84M166 214h68M174 246h52" stroke="#fff" stroke-opacity=".22" stroke-width="10" stroke-linecap="round"/>
  <g transform="rotate(-38 200 200)">
    <rect x="188" y="170" width="24" height="150" rx="12" fill="#fff"/>
    <path d="M136 120c0-11 9-20 20-20h96c16 0 28 12 28 28v14c0 11-9 20-20 20H156c-11 0-20-9-20-20z" fill="#fff"/>
    <rect x="176" y="156" width="48" height="22" rx="6" fill="#DDE9F7"/>
  </g>
</svg>
